<svg width="1440" height="900" viewBox="0 0 1440 900" fill="none" xmlns="http://www.w3.org/2000/svg">
<g clip-path="url(#clip0)">
<rect width="1440" height="900" fill="white"/>
<rect width="1440" height="953" fill="#211D1E"/>
<path d="M740.5 641.318C743.3 648.518 748.667 650.651 751 650.818C755 652.22 753.5 655.318 754 658.818C754.5 662.318 769 672.318 773 676.818C777 681.318 775 693.318 769 701.818C763 710.318 758.5 710.318 751 716.318C743.5 722.318 737.5 719.318 734.5 716.318C731.5 713.318 724.5 712.818 720 719.318C715.5 725.818 709.5 717.318 705.5 712.818C701.5 708.318 702.5 713.318 695.5 710.318C688.5 707.318 689 702.318 684.5 701.818C680 701.318 678 691.818 676 688.818C674 685.818 665 691.818 665 688.818C665 685.818 678 685.318 682.5 685.318C687 685.318 688 678.318 684.5 674.818C681 671.318 665 675.818 665 672.318C665 668.818 675 672.318 680.5 672.318C686 672.318 694.5 660.318 697 655.318C699 651.318 694.5 644.318 692 641.318C693.5 642.651 697.7 645.618 702.5 646.818C708.5 648.318 704.5 641.318 705.5 641.318C706.5 641.318 711 643.818 711.5 639.318C711.9 635.718 720.333 635.484 724.5 635.818C723.333 630.318 721.7 618.718 724.5 616.318C728 613.318 737 632.318 740.5 641.318Z" fill="#881F20"/>
<path fill-rule="evenodd" clip-rule="evenodd" d="M1212.52 240.217C1221.26 238.954 1240.13 238.009 1245.7 244.328C1252.66 252.228 1259.55 254.417 1259.41 244.139C1259.26 233.861 1256.74 216.762 1248.55 202.026C1240.35 187.291 1220.6 163.576 1182.88 161.812C1145.17 160.048 1113.05 150.212 1106.13 145.738C1099.22 141.265 1082.98 123.213 1079.41 112.982C1078.57 110.563 1077.79 108.142 1077.03 105.782C1074.57 98.1623 1072.32 91.1695 1068.77 86.858C1064.12 81.211 1052.51 67.6645 1034.19 64.4906C1015.87 61.3167 971.257 56.2213 941.848 77.1872C937.437 80.3319 933.484 83.1105 929.935 85.6047C909.823 99.7396 902.707 104.741 898.972 115.472C897.082 120.901 894.527 124.016 892.242 126.801C889.212 130.495 886.657 133.609 886.756 140.77C886.846 147.268 885.998 152.251 885.033 157.921C884.132 163.212 883.13 169.101 882.693 177.377C882.426 182.418 881.586 188.75 880.655 195.756C878.421 212.584 875.67 233.306 879.117 249.387C879.465 251.01 879.814 252.679 880.173 254.397C884.849 276.791 891.254 307.465 920.506 351.616C952.002 399.155 951.238 426.579 934.423 449.656C930.414 455.158 927.307 460.128 924.634 464.402C916.098 478.055 912 484.61 897.131 478.726C891.621 476.546 888.104 473.792 884.482 470.956C875.271 463.742 865.381 455.997 820.285 455.8C805.329 448.01 766.501 448.546 726.782 467.37C699.343 465.464 659.435 470.584 654.946 476.357C653.576 478.119 652.814 477.744 650.929 476.816C646.639 474.702 636.53 469.722 600.177 480.539C558.315 492.996 550.217 502.17 551.402 505.199C538.908 510.321 513.485 522.17 511.746 528.591C507.99 529.901 505.315 531.504 502.308 533.307C497.125 536.413 490.953 540.113 476.549 543.926C453.787 549.951 419.716 564.128 400.491 578.1C388.774 586.615 387.58 589.046 386.894 590.442C386.454 591.337 386.223 591.807 383.566 593.182C378.122 595.999 363.173 605.267 356.378 609.549L363.23 609.454C353.443 617.585 333.412 633.852 331.585 633.877L341.863 633.736C332.425 639.577 313.093 651.266 311.266 651.291C314.933 652.154 318.884 651.567 320.402 651.165C316.257 654.268 307.525 661.623 305.761 666.216C310.278 662.499 313.692 661.538 314.834 661.522C311.46 665.376 304.282 674.917 302.555 682.252C310.471 676.431 302.634 687.962 297.019 694.892C292.526 700.437 288.463 709.479 286.993 713.306L290.403 712.117C289.287 714.036 286.605 718.338 284.803 720.19C283.001 722.043 283.344 724.779 283.74 725.916L288.261 722.427C288.266 722.807 288.061 724.486 287.198 728.153C286.528 730.998 285.399 732.53 284.644 733.555C284.182 734.181 283.86 734.619 283.866 735.052C283.882 736.194 288.418 733.847 289.529 731.547C290.417 729.707 290.65 730.009 290.655 730.389C289.92 732.303 287.999 736.594 286.197 738.446C284.395 740.299 287.741 739.948 289.639 739.541C288.143 741.465 283.78 745.333 278.298 745.409C281.99 748.099 287.471 747.947 289.749 747.535C289.432 752.109 287.658 761.499 283.102 762.476C288.797 761.255 292.191 758.924 293.302 756.624C290.002 765.807 286.639 770.423 285.497 770.438C289.151 770.388 292.317 768.06 293.443 766.902C290.239 771.669 283.562 780.992 281.37 781.857C281.275 781.88 281.181 781.901 281.086 781.922C281.17 781.92 281.265 781.898 281.37 781.857C285.843 780.776 290.574 776.802 292.412 774.912C290.164 777.608 285.705 785.513 285.843 795.563C289.447 791.858 293.341 787.083 294.838 785.159C291.11 790.921 283.663 803.131 283.701 805.872C286.404 803.094 290.094 800.073 291.601 798.91C291.267 802.341 290.838 809.886 291.79 812.614C294.468 808.008 296.639 805.313 297.39 804.541C297.046 807.211 295.685 813.474 292.995 817.166C290.304 820.858 288.12 822.564 287.364 822.955C290.679 821.576 297.237 818.107 299.999 814.181C296.106 821.168 293.791 823.655 293.089 824.018C296.124 823.215 302.407 820.463 303.257 815.882C302.273 827.318 301.146 828.476 300.004 828.492C298.862 828.508 303.462 830.729 306.793 823.829C310.125 816.93 312.74 840.881 307.124 847.811C313.494 845.896 314.284 842.382 313.882 840.865C314.808 843.234 316.042 847.739 315.239 850.484C314.877 851.053 314.478 851.653 314.04 852.285C314.632 851.878 315.015 851.249 315.239 850.484C318.578 845.237 318.819 842.626 318.466 841.944C321.204 847.236 324.878 859.674 317.67 867.084C322.264 868.848 325.675 867.735 326.806 866.958C326.113 871.917 326.814 884.091 335.162 893.114C335.099 888.545 338.035 880.509 339.51 877.062C343.527 892.237 364.837 924.458 417.939 931.949C430.647 933.742 442.638 935.084 453.706 936.323C500.452 941.556 530.762 944.948 529.297 972.675C527.848 1000.11 519.248 1016.98 515.129 1021.99L529.786 1008.08C524.932 1015 515.255 1031.12 515.381 1040.26C515.495 1048.5 517.477 1057.34 518.741 1061.77C518.801 1062.27 518.947 1062.71 519.122 1063.05C519.006 1062.68 518.877 1062.25 518.741 1061.77C518.534 1060.05 519.363 1057.61 523.596 1056.14C522.548 1063 519.469 1088.18 523.052 1099.55C525.5 1104.86 527.584 1106.16 530.165 1107.77C532.551 1109.27 535.361 1111.03 539.277 1116.46C547.429 1127.77 575.499 1175.35 574.577 1191.36C573.888 1203.33 572.401 1203.81 567.897 1205.25C566.38 1205.74 564.522 1206.34 562.236 1207.52C553.163 1212.21 544.137 1220.33 549.847 1220.25C551.606 1220.23 554.005 1219.44 556.585 1218.59C562.382 1216.67 569.098 1214.46 571.545 1219.95C572.697 1222.54 574.444 1224.4 575.845 1225.88C578.746 1228.96 580.163 1230.46 571.734 1233.66C565.844 1235.89 561.736 1238.61 558.321 1240.87C554.49 1243.4 551.533 1245.36 547.91 1245.41C544.23 1245.46 542.215 1246.81 540.079 1248.23C538.238 1249.46 536.307 1250.75 533.143 1251.32C526.306 1252.56 521.864 1261.76 525.29 1261.71C526.049 1261.7 526.917 1261.52 527.884 1261.32C531.287 1260.62 535.917 1259.66 541.326 1264.92C548.272 1271.68 553.998 1272.74 563.024 1264.62C572.05 1256.5 582.343 1257.5 582.391 1260.93C582.438 1264.35 590.668 1281.37 600.994 1284.66C606.157 1286.3 611.069 1290.51 615.982 1294.73C620.894 1298.94 625.807 1303.16 630.97 1304.8C633.939 1305.75 636.923 1307.82 640.127 1310.05C648.066 1315.58 657.351 1322.04 671.082 1314.53C674.774 1317.22 678.034 1321.67 679.202 1323.55C681.883 1324.66 685.134 1323.02 676.697 1307.6C676.601 1300.6 666.807 1289.35 658.984 1285.2C680.973 1293.72 703.386 1292.22 716.416 1288.77C727.978 1298.89 771.5 1307.43 774.705 1291.4C778.322 1288.6 786.924 1293.89 790.772 1296.89C790.709 1292.32 788.29 1282.53 779.116 1279.91C774.453 1273.12 767.554 1269.79 735.593 1271.38C728.299 1266.06 722.51 1266.43 715.33 1266.89C713.424 1267.01 711.42 1267.14 709.264 1267.17C711.832 1265.96 714.065 1265 715.982 1264.17C723.381 1260.97 726.061 1259.82 725.079 1254.39C730.586 1256.14 736.53 1256.51 738.815 1256.48C738.006 1253.07 733.645 1246.05 722.669 1245.28C711.693 1244.52 706.644 1242.84 705.491 1242.09C707.374 1240.54 711.601 1237.9 713.454 1239.7C715.769 1241.95 722.622 1241.86 717.975 1236.21C714.257 1231.69 711.784 1229.06 711.012 1228.31C713.265 1225.99 714.093 1219.82 699.387 1213.62C704.86 1212.86 709.132 1214.58 713.405 1216.31C716.254 1217.46 719.102 1218.6 722.306 1219.02C726.705 1219.58 730.39 1218.44 734.143 1217.27C737.225 1216.31 740.353 1215.34 743.957 1215.29C748.51 1215.23 752.707 1216.28 756.321 1217.19C759.053 1217.87 761.452 1218.48 763.419 1218.45C764.901 1218.43 766.501 1218.17 768.142 1217.9C771.559 1217.34 775.158 1216.74 778.265 1218.24C782.864 1220.47 789.764 1223.8 798.852 1220.24C803.831 1218.3 805.378 1216.06 806.51 1214.42C807.445 1213.07 808.096 1212.12 810.162 1212.09C813.817 1212.04 817.828 1215.79 819.377 1217.68C820.117 1216.14 820.669 1211.95 816.951 1207.43C813.234 1202.91 810.803 1203.33 810.052 1204.1C809.238 1200.3 804.644 1192.98 792.78 1194.06C782.222 1194.2 774.215 1194.99 768.226 1195.58C758.667 1196.52 754.246 1196.96 752.794 1193.47C750.899 1188.91 755.697 1190.14 758.26 1190.8C758.892 1190.96 759.388 1191.09 759.614 1191.09C760.756 1191.07 764.104 1185.32 756.062 1182C753.342 1180.88 752.192 1179.87 751.287 1179.07C749.516 1177.51 748.683 1176.78 738.869 1177.67C731.591 1178.33 725.42 1179.52 719.944 1180.59C714.261 1181.69 709.324 1182.64 704.672 1182.71C702.544 1182.74 700.482 1182.95 698.437 1183.16C691.703 1183.86 685.17 1184.54 677.201 1178.52C668.146 1171.68 666.936 1167.33 665.189 1161.05C664.931 1160.13 664.662 1159.16 664.355 1158.14C663.237 1154.42 660.357 1149.23 657.359 1143.83C653.933 1137.67 650.353 1131.22 649.067 1126.36C648.227 1123.19 647.929 1119.04 647.599 1114.45C646.982 1105.86 646.256 1095.75 641.68 1087.63C634.654 1075.16 633.449 1070.61 633.292 1059.19C633.224 1054.29 634.034 1051.9 634.784 1049.69C635.78 1046.75 636.671 1044.12 635.26 1036.32C634.654 1032.97 634.055 1030.1 633.528 1027.57C631.903 1019.79 630.961 1015.28 632.614 1010.08C634.803 1003.2 636.993 996.318 640.23 982.566C643.067 970.511 647.781 967.208 656.521 961.085C657.75 960.223 659.06 959.306 660.455 958.3C662.665 956.707 664.442 955.338 665.965 954.166C672.233 949.337 674.188 947.831 684.295 947.691C690.35 947.608 694.268 946.492 697.855 945.471C701.709 944.374 705.182 943.385 710.514 943.903C720.808 944.903 765.173 931.726 777.53 916.707C776.991 918.999 779.255 917.54 784.916 913.892C790.577 910.245 799.634 904.409 812.681 897.946C816.16 896.223 819.378 894.727 822.401 893.321C842.051 884.185 853.461 878.879 874.703 839.979C894.386 809.553 916.618 787.239 925.274 779.885L925.369 786.737C931.359 779.421 944.208 761.348 947.673 747.594C952.005 730.401 955.273 718.933 958.589 710.892C957.604 722.328 974.435 700.393 973.088 685.563C971.741 670.733 973.726 649.003 975.915 642.119C977.557 647.58 980.118 641.746 982.292 636.795C983.287 634.526 984.202 632.443 984.91 631.715C985.803 630.797 986.013 632.404 986.215 633.961C986.524 636.329 986.817 638.58 989.478 631.652C990.741 628.362 995.234 621.181 1000.97 612.019C1015.24 589.209 1037.2 554.117 1036.13 536.204C1035.95 533.065 1035.77 530.355 1035.61 527.983C1034.51 511.383 1034.51 511.383 1041.31 497.296C1041.5 496.897 1041.7 496.495 1041.89 496.089C1049.62 480.111 1059.99 458.666 1051.83 432.044C1048.72 421.916 1047.06 413.97 1045.6 406.996C1043.13 395.175 1041.25 386.15 1033.9 374.038C1028.27 364.768 1027.44 357.814 1026.67 351.329C1025.83 344.345 1025.06 337.906 1018.44 329.705C1014.71 325.099 1009.92 320.604 1004.97 315.955C992.922 304.641 979.895 292.41 978.851 275.424C977.378 251.458 977.283 244.606 998.855 235.17C1020.43 225.735 1103.75 221.158 1116.42 228.979C1118.76 230.426 1122.06 232.642 1125.99 235.284C1143.28 246.922 1172.87 266.824 1187.74 265.688C1206 264.294 1245.93 260.98 1233.22 250.212C1223.05 241.597 1215.18 239.959 1212.52 240.217ZM595.827 1075.7C592.353 1072.32 585.242 1070.13 584.58 1088.42C584.414 1093 584.152 1097.27 583.905 1101.28C582.921 1117.29 582.179 1129.35 588.747 1142.05C595.319 1154.75 601.761 1174.61 604.16 1182.95C610.23 1181.35 622.325 1174.94 622.149 1162.15C622.064 1156.04 623.192 1153.25 624.156 1150.86C625.715 1147.01 626.843 1144.22 621.707 1130.17C615.06 1111.99 601.684 1086.28 595.827 1075.7ZM636.499 1208.78C634.162 1205 626.993 1198.63 617.006 1203.34C604.523 1209.22 616.226 1229.62 623.189 1237.52C630.151 1245.42 640.508 1250.99 664.443 1247.23C683.591 1244.22 695.219 1242.62 698.64 1242.19C691.783 1241.9 677.126 1239.29 673.358 1231.11C670.246 1224.36 667.231 1224.6 663.227 1224.9C661.172 1225.06 658.856 1225.24 656.134 1224.5C648.108 1222.32 636.578 1214.49 636.499 1208.78Z" fill="#C4C4C4" fill-opacity="0.2"/>
</g>
<defs>
<clipPath id="clip0">
<rect width="1440" height="900" fill="white"/>
</clipPath>
</defs>
</svg>
