<svg width="94" height="83" viewBox="0 0 94 83" fill="none" xmlns="http://www.w3.org/2000/svg">
<path d="M53.1533 11.2145C60.2024 8.70013 58.1884 8.70007 64.2304 2.66556C69.064 -2.16205 75.9788 0.654131 78.3285 2.66563C78.3285 2.66563 78.4292 3.06787 82.86 4.67712C88.3986 6.68869 88.902 6.18575 90.9161 8.70013C92.9301 11.2145 88.902 21.7749 85.881 25.7979C82.86 29.8209 73.797 38.3698 73.2935 41.8899C72.79 45.41 69.2655 53.4561 69.2655 55.9704C69.2655 58.4848 74.804 64.0164 77.3214 65.0222C79.8389 66.0279 84.874 65.0222 86.888 64.0164C88.902 63.0107 88.902 61.5021 90.9161 62.5078C92.9301 63.5136 88.902 65.0222 86.888 66.5308C84.874 68.0395 89.909 67.0337 92.9301 68.0395C95.9511 69.0452 91.9231 69.5481 88.902 69.5481C85.881 69.5481 86.888 70.5538 89.909 71.5596C92.9301 72.5653 92.9301 74.074 86.888 73.5711C80.846 73.0682 64.2304 63.0107 62.2164 61.5021C60.2025 59.9934 60.2024 54.4618 60.2024 51.9474C60.2024 49.4331 59.1954 50.9417 57.1814 53.4561C55.1674 55.9704 55.1674 56.9762 57.1814 59.4906C59.1954 62.0049 59.1954 65.0222 57.1814 68.0395C55.1674 71.0567 36.5378 70.5538 30.9993 70.5538C29.9923 73.0682 45.6009 72.5653 49.6289 72.5653C53.6569 72.5653 54.1604 70.5538 57.1814 72.5653C59.454 74.0785 54.4846 75.1174 51.2321 75.5147C54.083 75.2193 59.0774 75.0902 60.2024 76.5883C61.4108 78.1975 54.3282 77.9293 50.6359 77.5941C52.3142 77.9293 55.973 79.1027 57.1814 81.1142C58.6919 83.6286 57.1814 83.6286 53.1533 81.1142C49.1253 78.5998 34.5238 78.5998 27.4747 78.5998C20.4256 78.5998 4.31364 68.0395 1.29262 65.0222C-1.72839 62.0049 1.29262 58.9877 2.80313 56.9762C4.31364 54.9647 12.8732 34.3468 14.3837 30.8267C15.8942 27.3065 24.4537 22.7806 27.4747 21.7749C30.4957 20.7691 46.1043 13.7289 53.1533 11.2145Z" fill="#C4C4C4"/>
</svg>
