<svg width="106" height="78" viewBox="0 0 106 78" fill="none" xmlns="http://www.w3.org/2000/svg">
<path d="M82.9997 2.00001C86.1997 -2.39999 99.3331 1.50001 105.5 4.00001C106.999 10.5 94 22 92.5 22.5C92 21.5 81.5 19.5 79.5 21C77.5 22.5 85 24.5 87.5 25C87.5 26.5 71.5 35 66.5 37C60.5 36 52 36 51.0002 38C50.2004 39.6 57.6668 40 61.5 40C60 41.3333 54.8 45.8 46 53C35 62 21 62.5 16 60C10.5 60.5 4.5 72.5 3.5 75.5C2.5 78.5 1 79 0 75.5C0.5 70.5 7.49924 62.5 12.9992 57C4.99924 50.5 9.99924 39 11.9992 35C13.9992 31 20.0002 27 25.5002 21C24.5002 24 24.0002 25 26.5002 33C30.5002 31.5 30.5002 26 31.5002 18C32.5002 10 48.0002 6 51.0002 5C49.5002 7.99999 49.5002 12.5 51.0002 14C52.5002 15.5 54.5002 12 55.0002 6C55.5002 0 65.4997 0.5 70.4997 0C67.9997 8 74.9997 9 76.9997 9C78.9997 9 78.9997 7.50001 82.9997 2.00001Z" fill="#C4C4C4"/>
</svg>
