<svg width="99" height="95" viewBox="0 0 99 95" fill="none" xmlns="http://www.w3.org/2000/svg">
<path d="M67.9001 22.7592C70.4182 29.2316 75.2447 31.1493 77.3431 31.2992C80.9406 32.5598 79.5914 35.3445 80.041 38.4908C80.4907 41.6371 93.5311 50.6265 97.1284 54.6717C100.726 58.717 98.9271 69.5043 93.5311 77.1453C88.1351 84.7863 84.0881 84.7863 77.3431 90.1799C70.5982 95.5736 65.202 92.8767 62.5039 90.1799C59.8059 87.4831 53.5107 87.0336 49.4636 92.8767C45.4164 98.7199 40.0205 91.0788 36.4232 87.0336C32.8258 82.9884 33.7252 87.4831 27.4298 84.7863C21.1344 82.0894 21.5841 77.5947 17.5371 77.1453C13.4901 76.6958 11.6914 68.1558 9.89271 65.459C8.09404 62.7622 0 68.1558 0 65.459C0 62.7622 11.6914 62.3127 15.7384 62.3127C19.7854 62.3127 20.6848 56.0201 17.5371 52.8738C14.3894 49.7275 0 53.7728 0 50.6265C0 47.4802 8.99337 50.6265 13.9397 50.6265C18.8861 50.6265 26.5305 39.8392 28.7788 35.3445C30.5775 31.7487 26.5305 25.4561 24.2821 22.7592C25.6311 23.9578 29.4083 26.6247 33.7252 27.7035C39.1212 29.0519 35.5238 22.7592 36.4232 22.7592C37.3225 22.7592 41.3695 25.0066 41.8192 20.9614C42.1789 17.7252 49.7634 17.5155 53.5107 17.8151C52.4615 12.8709 50.9925 2.44314 53.5107 0.285684C56.6584 -2.41114 64.7524 14.6688 67.9001 22.7592Z" fill="#C4C4C4"/>
</svg>
