<svg width="148" height="91" viewBox="0 0 148 91" fill="none" xmlns="http://www.w3.org/2000/svg">
<path d="M118.227 4.49091C124.105 5.16133 126.502 4.78865 126.965 4.5185C128.256 3.17491 129.15 2.457 129.746 5.65558C130.341 8.85416 137.391 13.6085 138.384 18.9394C139.376 24.2702 133.716 24.2209 133.617 26.4457C133.517 28.6705 131.928 31.1726 128.552 29.595C125.176 28.0173 116.835 30.1221 114.55 34.4083C112.266 38.6946 116.436 44.5369 119.812 46.1145C123.188 47.6921 130.437 59.0285 132.025 64.7999C133.613 70.5713 130.039 67.9275 128.053 68.2973C126.067 68.6671 124.577 66.1866 122.492 60.5076C120.408 54.8287 112.762 52.3914 104.917 48.888C98.8587 63.2535 103.625 64.0207 106.107 66.3163C108.59 68.6119 105.213 72.55 100.745 73.3821C96.2762 74.2141 92.2058 60.6314 93.1004 48.882C88.1354 49.8065 70.3605 50.9099 62.6153 47.9395C63.3102 51.6711 61.2242 59.7814 60.628 64.8564C60.0319 69.9315 66.8835 70.862 70.3588 72.9727C73.8342 75.0834 72.2452 77.5855 68.4716 79.3913C64.6981 81.197 59.9322 74.9141 56.4568 72.8034C52.9815 70.6927 52.4854 65.2695 52.7836 61.353C53.0222 58.2198 49.8383 52.8926 48.2166 50.6206C45.8 55.1153 39.9934 66.0511 36.1002 73.836C31.2337 83.5671 37.0928 79.1668 41.1639 81.7181C45.235 84.2695 31.1343 85.7919 28.1556 80.8309C25.177 75.8699 31.0365 65.9539 33.9165 62.1082C36.7965 58.2626 36.4991 51.1477 34.7121 47.0679C32.5271 51.8873 26.5683 61.2702 21.0072 64.5119C15.446 67.7537 8.29692 62.4661 6.50983 58.3863C4.72275 54.3066 9.78709 53.9152 10.4819 57.6467C11.1767 61.3783 16.3403 61.52 20.2131 60.2473C24.0859 58.9746 27.5621 50.0539 28.9528 43.7278C30.3435 37.4017 34.912 28.8291 40.6717 23.8956C46.4315 18.9621 71.8527 14.7804 78.4064 16.8695C84.96 18.9586 89.8258 17.501 94.2946 13.9111C98.7634 10.3212 110.879 3.65288 118.227 4.49091Z" fill="#C4C4C4"/>
</svg>
